name analog
datacolumns 19
datarows 36
range 0.6645 0.682
endheader
time	ground_force_vx	ground_force_vy	ground_force_vz	ground_force_px	ground_force_py	ground_force_pz	l_ground_force_vx	l_ground_force_vy	l_ground_force_vz	l_ground_force_px	l_ground_force_py	l_ground_force_pz	ground_torque_x	ground_torque_y	ground_torque_z	l_ground_torque_x	l_ground_torque_y	l_ground_torque_z
0.6645	-0.0	-0.0	-0.0	11.356977462768556	-5.483494281768799	-610.1105346679688	-0.0	-0.0	-0.0	-0.0	-0.0	-0.0	-0.0	-0.0	-0.0	-0.0	-0.0	-0.0
0.665	-0.0	-0.0	-0.0	11.047226905822754	-4.161546230316162	-608.8822021484375	-0.0	-0.0	-0.0	-0.0	-0.0	-0.0	-0.0	-0.0	-0.0	-0.0	-0.0	-0.0
0.6655	-0.0	-0.0	-0.0	10.635049819946287	-3.2174956798553467	-603.694580078125	-0.0	-0.0	-0.0	-0.0	-0.0	-0.0	-0.0	-0.0	-0.0	-0.0	-0.0	-0.0
0.666	-0.0	-0.0	-0.0	10.47995376586914	-1.7448809146881104	-602.0042114257812	-0.0	-0.0	-0.0	-0.0	-0.0	-0.0	-0.0	-0.0	-0.0	-0.0	-0.0	-0.0
0.6665	-0.0	-0.0	-0.0	10.15133571624756	-0.0753349959850311	-601.0737915039062	-0.0	-0.0	-0.0	-0.0	-0.0	-0.0	-0.0	-0.0	-0.0	-0.0	-0.0	-0.0
0.667	-0.0	-0.0	-0.0	9.225666999816896	1.44963800907135	-599.6262817382812	-0.0	-0.0	-0.0	-0.0	-0.0	-0.0	-0.0	-0.0	-0.0	-0.0	-0.0	-0.0
0.6675	-0.0	-0.0	-0.0	8.136430740356445	2.710427045822144	-597.5591430664062	-0.0	-0.0	-0.0	-0.0	-0.0	-0.0	-0.0	-0.0	-0.0	-0.0	-0.0	-0.0
0.668	-0.0	-0.0	-0.0	6.31026029586792	3.5123586654663086	-598.6400146484375	-0.0	-0.0	-0.0	-0.0	-0.0	-0.0	-0.0	-0.0	-0.0	-0.0	-0.0	-0.0
0.6685	-0.0	-0.0	-0.0	5.531051635742188	3.5414953231811523	-599.4403076171875	-0.0	-0.0	-0.0	-0.0	-0.0	-0.0	-0.0	-0.0	-0.0	-0.0	-0.0	-0.0
0.669	-0.0	-0.0	-0.0	4.305919170379639	2.7868359088897705	-603.0667114257812	-0.0	-0.0	-0.0	-0.0	-0.0	-0.0	-0.0	-0.0	-0.0	-0.0	-0.0	-0.0
0.6695	-0.0	-0.0	-0.0	3.313206195831299	3.1786580085754395	-605.9623413085938	-0.0	-0.0	-0.0	-0.0	-0.0	-0.0	-0.0	-0.0	-0.0	-0.0	-0.0	-0.0
0.67	-0.0	-0.0	-0.0	2.5043270587921143	2.567319393157959	-607.7534790039062	-0.0	-0.0	-0.0	-0.0	-0.0	-0.0	-0.0	-0.0	-0.0	-0.0	-0.0	-0.0
0.6705	-0.0	-0.0	-0.0	1.5818054676055908	1.9953566789627075	-612.1292114257812	-0.0	-0.0	-0.0	-0.0	-0.0	-0.0	-0.0	-0.0	-0.0	-0.0	-0.0	-0.0
0.671	-0.0	-0.0	-0.0	0.9161282181739808	1.3918349742889404	-615.49755859375	-0.0	-0.0	-0.0	-0.0	-0.0	-0.0	-0.0	-0.0	-0.0	-0.0	-0.0	-0.0
0.6715	-0.0	-0.0	-0.0	0.5593590140342712	0.7683588266372681	-619.286865234375	-0.0	-0.0	-0.0	-0.0	-0.0	-0.0	-0.0	-0.0	-0.0	-0.0	-0.0	-0.0
0.672	-0.0	-0.0	-0.0	0.7787591218948364	-0.1709360480308532	-621.3390502929688	-0.0	-0.0	-0.0	-0.0	-0.0	-0.0	-0.0	-0.0	-0.0	-0.0	-0.0	-0.0
0.6725	-0.0	-0.0	-0.0	0.6804120540618896	-0.2915609776973724	-621.2734985351562	-0.0	-0.0	-0.0	-0.0	-0.0	-0.0	-0.0	-0.0	-0.0	-0.0	-0.0	-0.0
0.673	-0.0	-0.0	-0.0	0.42963507771492	-1.021079659461975	-622.65625	-0.0	-0.0	-0.0	-0.0	-0.0	-0.0	-0.0	-0.0	-0.0	-0.0	-0.0	-0.0
0.6735	-0.0	-0.0	-0.0	0.2433276772499084	-0.7293274998664856	-622.9448852539062	-0.0	-0.0	-0.0	-0.0	-0.0	-0.0	-0.0	-0.0	-0.0	-0.0	-0.0	-0.0
0.674	-0.0	-0.0	-0.0	-0.4217080473899841	-0.5266222953796387	-621.8541259765625	-0.0	-0.0	-0.0	-0.0	-0.0	-0.0	-0.0	-0.0	-0.0	-0.0	-0.0	-0.0
0.6745	-0.0	-0.0	-0.0	-0.283590018749237	-0.3236749172210693	-620.987060546875	-0.0	-0.0	-0.0	-0.0	-0.0	-0.0	-0.0	-0.0	-0.0	-0.0	-0.0	-0.0
0.675	-0.0	-0.0	-0.0	-0.1049989759922027	-0.1206789910793304	-619.449462890625	-0.0	-0.0	-0.0	-0.0	-0.0	-0.0	-0.0	-0.0	-0.0	-0.0	-0.0	-0.0
0.6755	-0.0	-0.0	-0.0	-0.202967882156372	0.7866176962852478	-616.1757202148438	-0.0	-0.0	-0.0	-0.0	-0.0	-0.0	-0.0	-0.0	-0.0	-0.0	-0.0	-0.0
0.676	-0.0	-0.0	-0.0	-0.4769547879695892	1.653475999832153	-616.1405029296875	-0.0	-0.0	-0.0	-0.0	-0.0	-0.0	-0.0	-0.0	-0.0	-0.0	-0.0	-0.0
0.6765	-0.0	-0.0	-0.0	-0.9719562530517578	2.713801860809326	-613.0598754882812	-0.0	-0.0	-0.0	-0.0	-0.0	-0.0	-0.0	-0.0	-0.0	-0.0	-0.0	-0.0
0.677	-0.0	-0.0	-0.0	-1.3285069465637207	3.451392650604248	-612.4140625	-0.0	-0.0	-0.0	-0.0	-0.0	-0.0	-0.0	-0.0	-0.0	-0.0	-0.0	-0.0
0.6775	-0.0	-0.0	-0.0	-1.437177062034607	3.550283670425415	-607.7634887695312	-0.0	-0.0	-0.0	-0.0	-0.0	-0.0	-0.0	-0.0	-0.0	-0.0	-0.0	-0.0
0.678	-0.0	-0.0	-0.0	-1.6949996948242188	4.208799362182617	-604.8403930664062	-0.0	-0.0	-0.0	-0.0	-0.0	-0.0	-0.0	-0.0	-0.0	-0.0	-0.0	-0.0
0.6785	-0.0	-0.0	-0.0	-2.14105224609375	3.248135089874268	-603.2313232421875	-0.0	-0.0	-0.0	-0.0	-0.0	-0.0	-0.0	-0.0	-0.0	-0.0	-0.0	-0.0
0.679	-0.0	-0.0	-0.0	-2.7301177978515625	2.77351713180542	-603.40283203125	-0.0	-0.0	-0.0	-0.0	-0.0	-0.0	-0.0	-0.0	-0.0	-0.0	-0.0	-0.0
0.6795	-0.0	-0.0	-0.0	-2.2944767475128174	1.6934776306152344	-604.1919555664062	-0.0	-0.0	-0.0	-0.0	-0.0	-0.0	-0.0	-0.0	-0.0	-0.0	-0.0	-0.0
0.68	-0.0	-0.0	-0.0	-2.583935499191284	0.5488723516464233	-605.1522216796875	-0.0	-0.0	-0.0	-0.0	-0.0	-0.0	-0.0	-0.0	-0.0	-0.0	-0.0	-0.0
0.6805	-0.0	-0.0	-0.0	-2.7041804790496826	-0.5514724850654602	-605.2401123046875	-0.0	-0.0	-0.0	-0.0	-0.0	-0.0	-0.0	-0.0	-0.0	-0.0	-0.0	-0.0
0.681	-0.0	-0.0	-0.0	-2.34463882446289	-1.6454522609710691	-607.7683715820312	-0.0	-0.0	-0.0	-0.0	-0.0	-0.0	-0.0	-0.0	-0.0	-0.0	-0.0	-0.0
0.6815	-0.0	-0.0	-0.0	-1.5805834531784058	-1.821372151374817	-608.2756958007812	-0.0	-0.0	-0.0	-0.0	-0.0	-0.0	-0.0	-0.0	-0.0	-0.0	-0.0	-0.0
0.682	-0.0	-0.0	-0.0	-1.0957882404327393	-2.7512152194976807	-609.7886352539062	-0.0	-0.0	-0.0	-0.0	-0.0	-0.0	-0.0	-0.0	-0.0	-0.0	-0.0	-0.0
